<svg width="16" height="16" viewBox="0 0 16 16" fill="none" xmlns="http://www.w3.org/2000/svg">
<g clip-path="url(#clip0_1972_1929)">
<path d="M7.64645 2.72016L8 3.07371L8.35355 2.72016C9.09364 1.98007 10.2858 1.2666 11.6 1.2666C13.724 1.2666 15.5 3.01144 15.5 5.5666C15.5 8.17321 14.1062 10.2507 12.407 11.8528C10.9004 13.2733 9.20334 14.2748 8.12752 14.9096C8.08398 14.9353 8.04146 14.9604 8 14.9849C7.95855 14.9604 7.91602 14.9353 7.87247 14.9096C6.79666 14.2748 5.09959 13.2733 3.59301 11.8528C1.89381 10.2507 0.5 8.17321 0.5 5.5666C0.5 3.01375 2.30427 1.2666 4.4 1.2666C5.71416 1.2666 6.90636 1.98007 7.64645 2.72016Z" stroke="#808080"/>
</g>
<defs>
<clipPath id="clip0_1972_1929">
<rect width="16" height="16" fill="white"/>
</clipPath>
</defs>
</svg>
