<svg width="14" height="12" viewBox="0 0 14 12" fill="none" xmlns="http://www.w3.org/2000/svg">
<path d="M1.34766 10.5143C1.34766 10.5143 2.97773 8.43297 6.9999 8.43297C11.0221 8.43297 12.6529 10.5143 12.6529 10.5143M6.9999 5.87341C7.58176 5.87341 8.13979 5.64227 8.55123 5.23083C8.96266 4.81939 9.19381 4.26137 9.19381 3.6795C9.19381 3.09764 8.96266 2.53961 8.55123 2.12818C8.13979 1.71674 7.58176 1.4856 6.9999 1.4856C6.41804 1.4856 5.86001 1.71674 5.44857 2.12818C5.03713 2.53961 4.80599 3.09764 4.80599 3.6795C4.80599 4.26137 5.03713 4.81939 5.44857 5.23083C5.86001 5.64227 6.41804 5.87341 6.9999 5.87341Z" stroke="#808080" stroke-linecap="round" stroke-linejoin="round"/>
</svg>
